<?xml version="1.0" encoding="UTF-8"?>
<svg width="78px" height="75px" viewBox="0 0 78 75" version="1.1" xmlns="http://www.w3.org/2000/svg" xmlns:xlink="http://www.w3.org/1999/xlink">
    <!-- Generator: Sketch 51.2 (57519) - http://www.bohemiancoding.com/sketch -->
    <title>Group 2</title>
    <desc>Created with Sketch.</desc>
    <defs></defs>
    <g id="Page-1" stroke="none" stroke-width="1" fill="none" fill-rule="evenodd">
        <g id="Group-2" fill="#FFFFFF" fill-rule="nonzero">
            <g id="download-(2)">
                <path d="M13.4355432,10.5824834 C12.9118843,10.0915532 12.0592602,10.0915532 11.5356013,10.5824834 C11.0119424,11.0734136 11.0119424,11.8727487 11.5356013,12.3636789 L23.7073139,23.7746595 C23.9691434,24.0201246 24.3148925,24.1428571 24.6572849,24.1428571 C24.9996772,24.1428571 25.3454264,24.0201246 25.6072558,23.7746595 C26.1309147,23.2837293 26.1309147,22.4843942 25.6072558,21.9934639 L13.4355432,10.5824834 Z" id="Shape"></path>
                <path d="M8.79216819,15.2252573 C8.26862758,14.734438 7.41619607,14.734438 6.89265546,15.2252573 C6.36911485,15.7160767 6.36911485,16.5152312 6.89265546,17.0060505 L19.0649747,28.4175998 C19.326745,28.6630095 19.672416,28.7857143 20.014731,28.7857143 C20.357046,28.7857143 20.7027171,28.6630095 20.9644874,28.4175998 C21.488028,27.9267805 21.488028,27.1276259 20.9644874,26.6368066 L8.79216819,15.2252573 Z" id="Shape"></path>
                <path d="M72.6089601,27.086741 C68.6048527,26.7661491 66.8397768,26.4193865 66.9737919,21.4109565 C67.0522397,18.6335841 65.9637762,17.1222225 64.02873,14.6916128 C63.2605951,13.7232945 62.5512961,13.0297692 61.3288176,11.8291854 L59.6944881,10.2098694 C52.7322442,3.24190342 45.2764328,0 36.2255158,0 C33.3523645,0 30.3288548,0.314049171 26.9850166,0.95850424 C26.357434,1.07954402 25.9063591,1.64221546 25.9292397,2.28339918 C25.9292397,2.34555474 25.9586576,2.67923199 25.9684636,2.74138755 C26.0501801,3.19937593 26.36724,3.58212335 26.8052403,3.74241929 C27.9917636,4.18077959 29.2044361,4.5766124 30.41384,4.96917386 L30.8387657,5.10984172 C33.8426634,6.08143134 36.9511581,7.08573442 39.7197124,8.672337 C43.1550731,10.651501 45.5117763,12.4376557 45.8484482,14.7112408 C46.1295529,16.539923 45.197985,18.4373034 42.5438338,21.4665694 L35.1043658,28.2218979 C33.836126,26.5862251 32.4730952,24.0084048 31.2604227,19.8668814 C31.1264077,19.4154357 30.8779896,19.0032462 30.5118997,18.6466695 C29.9398844,18.1101689 23.2783572,11.4268099 19.7024441,7.83814389 L19.0094884,7.14788998 C18.9833391,7.11844787 16.607024,4.31490475 13.1193647,4.31490475 C11.563483,4.31490475 10.0925864,4.85140542 8.74916754,5.90477868 C7.32403218,7.02357885 3.23493966,11.1193035 2.12359557,12.5423388 C-1.02739178,16.5628224 1.08416199,20.8351997 3.20225307,22.6638818 C10.1906462,29.6253051 14.4333657,33.874783 14.8452167,34.3131433 C15.1851573,34.6762626 15.6133516,34.9379703 16.0676952,35.0622814 C19.7383994,36.1418254 22.1735504,37.3554946 23.7948053,38.4808375 L1.25413226,58.9431038 C0.45657944,59.6627998 0.0349224183,60.3955812 0.00223582739,61.1316339 C-0.0369880817,62.0279826 0.446773463,62.9734014 0.910923053,63.4739173 C2.30990914,64.9656509 3.76446244,66.3952289 5.22228439,67.8215355 C6.09174771,68.6720854 6.95794236,69.5193638 7.81433104,70.3862704 C8.62168984,71.1910214 9.38328741,71.5835829 10.1481536,71.5835829 C10.9228258,71.5835829 11.697498,71.1746647 12.5146628,70.3372002 L33.1791256,49.0145701 C34.1891412,49.4954579 35.4214257,49.3417046 36.2549338,48.5107829 L36.9315462,47.830343 L51.4738105,62.3878306 L54.8307233,68.5412315 C54.8895592,68.6491859 54.9745443,68.7342409 55.0464548,68.8291099 C55.0497235,68.8323813 55.0497235,68.8356526 55.0529922,68.8356526 C55.2817983,69.1431591 55.553097,69.4179521 55.8865002,69.6044188 L63.6430282,73.942223 C64.0548793,74.1744885 64.5124916,74.2857143 64.9635665,74.2857143 C65.6663282,74.2857143 66.3658213,74.0141926 66.8920754,73.4907773 L69.6638983,70.7166763 C70.5170183,69.8595838 70.7000632,68.5281462 70.1149732,67.4715015 L65.7807313,59.7085986 C65.5944177,59.3683787 65.323119,59.1001283 65.0191337,58.8776768 C65.0158651,58.8744055 65.0125964,58.8678628 65.0093277,58.8645915 C64.9766412,58.831878 64.9341486,58.8187926 64.8981933,58.7926219 C64.8328202,58.7500944 64.7739843,58.6879388 64.7053424,58.651954 L64.5974767,58.5930698 C64.5876707,58.5897984 64.5778647,58.5799844 64.5680588,58.5767131 L58.5569947,55.2922821 L44.0179991,40.7347945 L44.6913429,40.0608974 C45.5967614,39.1514633 45.6784779,37.7807695 45.0312834,36.733939 L51.3365268,30.22069 C52.245214,29.3439694 53.3107969,28.4345353 54.3306185,28.2938675 C54.977813,28.2022698 55.6576941,28.1531996 56.3506498,28.1531996 C57.6515761,28.1531996 59.5473984,28.3298523 61.162116,29.1804021 C63.3161623,30.3122877 65.4996266,31.8269207 64.0810286,35.4875563 C63.9731628,35.7656207 63.9666255,36.0665845 64.048342,36.3446488 C64.3490586,37.4503636 65.5944177,38.9748106 67.6536729,40.7609653 C67.8857477,40.9637887 68.1603151,41.0586577 68.4348825,41.0586577 C68.640808,41.0586577 68.8532708,41.0030449 69.0428531,40.8983618 C69.8894358,40.7151665 70.8733021,40.2310073 71.5858698,39.7468482 C73.4261249,38.5037369 75.2042754,36.7797378 76.7340079,34.7580463 C77.3354412,33.9663806 77.8388147,32.6970986 77.979367,31.9283324 C78.0480088,31.5488563 77.9434117,31.1530235 77.6949937,30.855331 C75.7043803,28.4770628 73.9981402,27.2077808 72.6089601,27.086741 Z M4.98040362,20.743602 C4.94444837,20.7108885 1.45678912,17.6292811 4.1828508,14.1518408 C5.16998584,12.8891014 9.09891407,8.95367271 10.3671538,7.95918367 C11.2398858,7.27547246 12.1649163,6.93198118 13.1226334,6.93198118 C15.3453216,6.93198118 16.9927258,8.80973351 17.0809796,8.90787388 L17.8523831,9.68318277 C23.049551,14.8977075 28.1682712,20.0304487 28.7500925,20.5996628 C30.6099595,26.9460731 33.1562449,31.035255 36.310501,32.7559828 C37.6604572,33.4920355 38.8469804,33.6228894 39.6804885,33.6228894 C40.2230859,33.6228894 40.6185936,33.5607338 40.8081759,33.5836332 L30.0837054,44.3136465 C30.0837054,44.3169179 30.0837054,44.3169179 30.0804367,44.3201892 L29.6522424,44.4216009 C29.7764514,43.9603412 30.09678,42.291955 28.965824,40.1852085 C28.544167,39.3935429 27.8610172,38.4808375 26.8052403,37.5288759 C26.8019717,37.5256046 26.8019717,37.5223332 26.8019717,37.5223332 C26.7954344,37.5157905 26.788897,37.5125192 26.7856284,37.5092478 C24.9126867,35.8277762 21.8401472,34.0219935 16.760651,32.5237173 C16.1624864,31.8923476 9.16428725,24.9145676 4.98040362,20.743602 Z M10.6417212,68.5150608 C10.3704225,68.7931251 10.1775716,68.9207076 10.2004522,68.9632351 C10.1318103,68.9272503 9.95530275,68.8258386 9.67092941,68.5412315 C8.80800341,67.6677823 7.93200277,66.8106898 7.05273348,65.9503259 C5.62432946,64.55019 4.18938812,63.1500541 2.81981996,61.6877627 C2.72502885,61.5830796 2.62370041,61.321372 2.59428248,61.3638994 C2.61389444,61.3148293 2.72176019,61.1381766 3.00613353,60.8830117 L25.7854187,40.2081079 C26.1940011,40.6693676 26.4751058,41.0848285 26.6581507,41.4250484 C27.3511064,42.7172299 27.1419122,43.6593774 27.1484495,43.6593774 C26.7300612,44.8566899 27.1876735,46.1717708 28.2728683,46.8587534 C28.7206746,47.1368177 29.2175107,47.2709429 29.7110783,47.2709429 C30.116392,47.2709429 30.5086311,47.1531745 30.8779896,46.9732505 L31.2048555,47.300385 L10.6417212,68.5150608 Z M36.0065157,45.056242 C36.0065157,45.0595133 36.0065157,45.0595133 36.003247,45.0627847 L34.4081414,46.6592013 C34.3721861,46.7017288 34.3100816,46.6951861 34.267589,46.6592013 L33.6628871,46.0540024 C33.6596184,46.050731 33.6563498,46.050731 33.6530811,46.0474597 L32.848991,45.2427087 L41.4030718,36.6881401 L42.8412818,38.2125871 L41.2461762,39.8122751 C41.2461762,39.8122751 41.2429075,39.8122751 41.2429075,39.8122751 C41.2429075,39.8122751 41.2429075,39.8155464 41.2429075,39.8155464 L36.8106058,44.2547623 L36.0065157,45.056242 Z M67.8105686,68.8749088 L64.9210739,71.6653665 L57.9751734,67.7659226 L63.9339389,61.7989884 L67.8105686,68.8749088 Z M56.8409487,57.2812602 C56.9292025,57.3663152 57.0305309,57.4448275 57.1416653,57.5037117 L61.9106389,60.1207881 L56.2885453,65.7507738 L53.6801553,60.971338 C53.6213195,60.8601122 53.5461403,60.7619719 53.4611552,60.6703742 L38.7848759,45.9820328 L39.3895778,45.3768338 L39.4712943,45.2950502 C39.4712943,45.2950502 39.4712943,45.2950502 39.4712943,45.2950502 L42.167938,42.5929188 L56.8409487,57.2812602 Z M43.2694762,34.8005737 L43.174685,34.7057047 C43.5636555,33.8976824 43.5375062,32.9228214 43.0472073,32.1147991 C42.3902069,31.035255 41.0892805,30.5478246 39.9158319,30.930572 C39.9092946,30.930572 38.9286969,31.205365 37.5558601,30.4594982 C37.3630092,30.3548152 37.1603523,30.22069 36.9511581,30.0734795 L43.4525211,24.1719721 L48.5875845,29.3079846 L43.2694762,34.8005737 Z M74.6486034,33.1779864 C73.2921099,34.9739551 71.7231535,36.4984021 70.1215106,37.5779461 C69.6312117,37.9116233 69.1245695,38.1406175 68.7780917,38.2616573 C67.4608221,37.0545308 66.9182246,36.2923073 66.7024931,35.9259166 C68.6244647,30.1454491 63.9437449,27.6886686 62.3780572,26.8675608 C60.2926527,25.7683887 57.9522928,25.5361232 56.3506498,25.5361232 C55.5367537,25.5361232 54.7293949,25.5982788 53.9677973,25.7029618 C52.6374531,25.8894285 51.4738105,26.6287526 50.4605261,27.4825738 L45.2764328,22.2942198 C47.2768522,19.8734241 48.8752265,17.2399909 48.4339575,14.3219507 C47.9469273,11.0146204 45.1195372,8.76720602 41.0206387,6.40529455 C38.2095919,4.7925212 35.1926196,3.7718614 32.254095,2.8166285 C42.6222817,1.79924004 50.3167051,4.5340849 57.8476957,12.0647223 L59.5473984,13.7461939 C60.6881604,14.8649941 61.315743,15.480007 61.9858181,16.3207428 C63.8260732,18.6335841 64.4144318,19.5299328 64.3654019,21.3357155 C64.1692824,28.4639775 67.8922851,29.3374267 72.38996,29.6940034 C72.3997659,29.6940034 73.3051845,29.8346712 75.2434993,32.0166587 C75.0964097,32.4124915 74.8774095,32.8802939 74.6486034,33.1779864 Z" id="Shape"></path>
            </g>
        </g>
    </g>
</svg>