<?xml version="1.0" encoding="UTF-8"?>
<svg width="88px" height="88px" viewBox="0 0 88 88" version="1.1" xmlns="http://www.w3.org/2000/svg" xmlns:xlink="http://www.w3.org/1999/xlink">
    <!-- Generator: Sketch 51.2 (57519) - http://www.bohemiancoding.com/sketch -->
    <title>Group</title>
    <desc>Created with Sketch.</desc>
    <defs></defs>
    <g id="Page-1" stroke="none" stroke-width="1" fill="none" fill-rule="evenodd">
        <g id="Group" fill="#FFFFFF" fill-rule="nonzero">
            <g id="download-(1)">
                <path d="M43.8165273,0.0120310189 C42.7875619,0.12520518 42.0154801,1.00643564 42.0377431,2.04228076 L42.0377431,16.035399 C42.0275624,16.7563122 42.4059902,17.4268671 43.0281205,17.7902973 C43.6502507,18.1537276 44.4196977,18.1537276 45.041828,17.7902973 C45.6639582,17.4268671 46.042386,16.7563122 46.0322053,16.035399 L46.0322053,2.04228076 C46.0445955,1.46657197 45.8083644,0.913473555 45.3840108,0.524633746 C44.9596572,0.135793937 44.3883962,-0.0510214118 43.8165273,0.0120310189 Z M6.8677494,11.0066196 C6.09031816,11.0823477 5.42832156,11.6046984 5.17327535,12.3436504 C4.91822914,13.0826023 5.1169361,13.9025526 5.68189395,14.4424292 L17.6652804,26.4365277 C18.1692393,26.9553139 18.9139368,27.1610573 19.612424,26.9744803 C20.3109113,26.7879033 20.8541584,26.2381296 21.03284,25.5369993 C21.2115217,24.835869 20.9977466,24.0928247 20.4738871,23.5941781 L8.49049965,11.6000796 C8.06745643,11.1662383 7.47058641,10.9479556 6.8677494,11.0066196 Z M80.7340972,11.0066196 C80.2939388,11.0702672 79.8875912,11.2791196 79.5794488,11.6000796 L67.5960613,23.5941781 C67.0722019,24.0928247 66.8584268,24.835869 67.0371084,25.5369993 C67.21579,26.2381296 67.7590371,26.7879033 68.4575244,26.9744803 C69.1560117,27.1610573 69.9007091,26.9553139 70.404668,26.4365277 L82.3880555,14.4424292 C83.023707,13.8448947 83.1985903,12.9036895 82.8200686,12.1173766 C82.4415468,11.3310637 81.5971242,10.8814179 80.7340972,11.0066196 Z M44.0349742,22.0324483 C32.4813716,22.0324483 23.0640459,31.4205271 23.0640459,43.0221056 C23.0640459,49.6885048 26.2736284,55.1320041 31.0529712,58.8893036 L31.0529712,64.011803 C31.0529712,65.6751028 31.7971519,67.1005026 32.8629614,68.1660025 C33.2195992,68.5226024 33.611591,68.8606024 34.0488178,69.1343024 L34.0488178,81.0034009 C34.0488178,84.9091004 37.2352284,88 41.0391266,88 L47.0308208,88 C50.8347191,88 54.0211306,84.9091004 54.0211306,81.0034009 L54.0211306,69.1343024 C54.4583574,68.8606024 54.8503502,68.5226024 55.206986,68.1660025 C56.2727976,67.1005026 57.0169772,65.6751028 57.0169772,64.011803 L57.0169772,58.8893036 C61.79632,55.1320041 65.0059025,49.6885048 65.0059025,43.0221056 C65.0059025,31.4205271 55.5885779,22.0324483 44.0349742,22.0324483 Z M44.0349742,26.0304778 C53.4391389,26.0304778 61.0114394,33.5736668 61.0114394,43.0221056 C61.0114394,48.8035049 58.2940436,53.2125044 53.8650967,56.359304 C53.3295465,56.7390666 53.0145704,57.3579298 53.0225151,58.0148038 L53.0225151,64.011803 C53.0225151,64.378903 52.7932372,64.9289029 52.3671734,65.3548028 C51.9411096,65.7807028 51.3885488,66.0108028 51.025283,66.0108028 L37.0446644,66.0108028 C36.6813996,66.0108028 36.1288399,65.7807028 35.7027751,65.3548028 C35.2767103,64.9289029 35.0474344,64.378903 35.0474344,64.011803 L35.0474344,58.0148038 C35.0553788,57.3579296 34.7404023,56.7390664 34.2048518,56.359304 C29.7759048,53.2125044 27.0585091,48.8035049 27.0585091,43.0221056 C27.0585091,33.5736668 34.6308086,26.0304778 44.0349742,26.0304778 Z M50.8692501,34.9948166 C50.2796836,35.0446288 49.7425187,35.3534869 49.4025337,35.8381465 L41.8817092,46.1768052 L38.2617279,43.4281056 C37.705143,42.9230865 36.9125168,42.7733539 36.2103102,43.0405786 C35.5081036,43.3078034 35.0150875,43.9467871 34.9343218,44.6943499 C34.8535562,45.4419128 35.1987015,46.1716123 35.827602,46.5829052 L41.0703336,50.5809047 C41.497684,50.9122762 42.0409799,51.0561244 42.5761372,50.9795957 C43.1112944,50.903067 43.592607,50.6126973 43.9101473,50.1748047 L52.6480342,38.1807462 C53.1185932,37.5487223 53.174208,36.6989567 52.7900451,36.0108936 C52.4058823,35.3228304 51.6536535,34.9249107 50.8692501,34.9948166 Z M1.90587799,44.0216055 C0.80281914,44.0733568 -0.0494715245,45.0103145 0.00223351554,46.1143592 C0.0539385556,47.2184039 0.990059653,48.0714563 2.09311851,48.019705 L16.0737371,48.019705 C16.7934249,48.0289882 17.4624484,47.6500148 17.8249964,47.0276911 C18.1875443,46.4053674 18.1875443,45.6359431 17.8249964,45.0136194 C17.4624484,44.3912957 16.7934249,44.0123223 16.0737371,44.0216055 L2.09311851,44.0216055 C2.03073932,44.0186759 1.96825718,44.0186759 1.90587799,44.0216055 Z M71.8089714,44.0216055 C70.7059125,44.0733566 69.8536217,45.0103142 69.9053266,46.1143589 C69.9570315,47.2184036 70.8931524,48.0714561 71.9962113,48.019705 L85.9768298,48.019705 C86.6965176,48.0289882 87.3655411,47.6500148 87.728089,47.0276911 C88.090637,46.4053674 88.090637,45.6359431 87.728089,45.0136194 C87.3655411,44.3912957 86.6965176,44.0123223 85.9768298,44.0216055 L71.9962113,44.0216055 C71.9338323,44.018676 71.8713504,44.018676 71.8089714,44.0216055 Z M38.043281,70.0089023 L50.0266684,70.0089023 L50.0266684,72.007902 L38.043281,72.007902 L38.043281,70.0089023 Z M38.043281,76.0059015 L50.0266684,76.0059015 L50.0266684,78.0049013 L38.043281,78.0049013 L38.043281,76.0059015 Z M38.1993149,82.0030008 L49.8706345,82.0030008 C49.5244307,83.2847006 48.5097901,84.0020005 47.0308208,84.0020005 L41.0391266,84.0020005 C39.5601583,84.0020005 38.5455188,83.2847006 38.1993149,82.0030008 Z" id="Shape"></path>
            </g>
        </g>
    </g>
</svg>