<?xml version="1.0" encoding="UTF-8"?>
<svg width="69px" height="84px" viewBox="0 0 69 84" version="1.1" xmlns="http://www.w3.org/2000/svg" xmlns:xlink="http://www.w3.org/1999/xlink">
    <!-- Generator: Sketch 51.2 (57519) - http://www.bohemiancoding.com/sketch -->
    <title>Group 3</title>
    <desc>Created with Sketch.</desc>
    <defs></defs>
    <g id="Page-1" stroke="none" stroke-width="1" fill="none" fill-rule="evenodd">
        <g id="Group-3" fill="#FFFFFF" fill-rule="nonzero">
            <g id="download">
                <path d="M22.8687497,55.1724156 C21.9342151,58.8465089 20.9997718,62.5206936 20.0652373,66.1947869 C18.8160275,71.106407 17.5668176,76.0179357 16.3175165,80.9296472 C16.2287175,81.2786815 16.1399184,81.6278986 16.0511194,81.9770243 C15.836286,82.8214533 16.3157825,83.7105857 17.1666288,83.9449817 C17.9934728,84.1727956 18.9164169,83.672373 19.1312503,82.8275783 C20.0657849,79.153485 21.0002282,75.4793003 21.9347627,71.8052069 C23.1839725,66.8935869 24.4331824,61.9820582 25.6824835,57.0703467 C25.7712825,56.7213124 25.8600816,56.3720952 25.9488806,56.0229695 C26.163714,55.1785406 25.6842175,54.2894082 24.8333712,54.0550122 C24.0065272,53.8271983 23.0835831,54.3277123 22.8687497,55.1724156 Z" id="Shape"></path>
                <path d="M43.0511196,56.0229699 C43.9855663,59.697064 44.9201043,63.3712495 45.8546423,67.0453436 C47.1038568,71.9569647 48.3531625,76.8684943 49.6023769,81.7801154 C49.6911763,82.1292412 49.7799757,82.4784584 49.868775,82.8275842 C50.0836092,83.6722876 51.006648,84.1728018 51.8334039,83.9449878 C52.684162,83.7105918 53.1636603,82.8214592 52.9489173,81.9770301 C52.0144706,78.302936 51.0799326,74.6287505 50.1453946,70.9546564 C48.8961802,66.0430353 47.6468744,61.1315057 46.39766,56.2198846 C46.3088606,55.8707588 46.2200613,55.5215416 46.1312619,55.1724158 C45.9164277,54.3277124 44.9933889,53.8271982 44.1666331,54.0550122 C43.3157837,54.2894082 42.8362854,55.1785408 43.0511196,56.0229699 Z" id="Shape"></path>
                <path d="M65.9839253,9.09958937 C65.9140553,7.35372908 64.5826838,6.03493127 62.8438862,6.03493127 C62.5605643,6.03493127 62.2772425,6.03493127 61.9939206,6.03493127 C60.6806866,6.03493127 59.3674527,6.03493127 58.0542187,6.03493127 C53.3216444,6.03493127 48.5891595,6.03493127 43.8566746,6.03493127 C37.9925104,6.03493127 32.1283462,6.03493127 26.2642714,6.03493127 C21.2802724,6.03493127 16.2962735,6.03493127 11.3122745,6.03493127 C9.18552878,6.03493127 7.04073484,5.95312648 4.91515067,6.03989187 C3.18725357,6.11042257 2,7.58462241 2,9.26518318 C2,9.68124216 2,10.0973011 2,10.5133601 C2,12.3288492 2,14.1443382 2,15.9599175 C2,21.6109417 2,27.2620562 2,32.9130804 C2,37.6128422 2,42.3126941 2,47.0124558 C2,47.5261935 2,48.0400214 2,48.5537591 C2,48.6646059 2,48.7752724 2,48.886029 C2,49.7166137 2.31227056,50.378538 2.8123502,51.0147574 C3.67920256,52.1173632 5.08768128,51.996054 6.3131757,51.996054 C9.91049683,51.996054 13.5077286,51.996054 17.1050497,51.996054 C22.7191294,51.996054 28.3332091,51.996054 33.9472888,51.996054 C39.5663719,51.996054 45.185455,51.996054 50.8046275,51.996054 C54.4169591,51.996054 58.0292907,51.996054 61.6417116,51.996054 C62.9114332,51.996054 64.0505283,52.0748825 65.0946467,51.0984562 C66.1945181,50.0699887 65.983836,48.4195523 65.983836,47.0538543 C65.983836,42.3696959 65.983836,37.6857179 65.983836,33.0016497 C65.983836,27.3444021 65.983836,21.6872448 65.983836,16.0300874 C65.9839253,13.7198913 65.9839253,11.4097854 65.9839253,9.09958937 C65.9839253,8.23915091 65.2727168,7.52121694 64.4203388,7.52121694 C63.5679608,7.52121694 62.8567523,8.23915091 62.8567523,9.09958937 C62.8567523,11.9952263 62.8567523,14.8909535 62.8567523,17.7866806 C62.8567523,23.558022 62.8567523,29.3293633 62.8567523,35.1006144 C62.8567523,39.3740352 62.8567523,43.647456 62.8567523,47.9207866 C62.8567523,48.242504 62.8567523,48.5643116 62.8567523,48.886029 C62.8567523,48.9010912 62.8567523,48.9160632 62.8567523,48.9311254 C62.8567523,49.1557052 62.8367384,49.032051 62.8697971,48.8689826 C62.7954597,49.2358865 63.029819,48.5977731 62.8495151,48.9176867 C63.0202588,48.6146392 62.895976,48.854642 62.8004632,48.9438425 C62.9692412,48.8161297 62.9808564,48.7978205 62.8353982,48.8889152 C63.0355372,48.8113495 63.0525133,48.7991734 62.8860584,48.8525675 C63.2136074,48.7568731 62.9731725,48.8393994 62.8522849,48.8393994 C62.0366288,48.8393994 61.2210621,48.8393994 60.4054061,48.8393994 C56.2833453,48.8393994 52.1612845,48.8393994 48.0393131,48.8393994 C42.2726274,48.8393994 36.5059417,48.8393994 30.7393453,48.8393994 C25.3397897,48.8393994 19.9402341,48.8393994 14.5407679,48.8393994 C11.5201868,48.8393994 8.49960572,48.8393994 5.47902464,48.8393994 C5.33133273,48.8393994 5.18364081,48.8393994 5.0359489,48.8393994 C4.64281858,48.8393994 5.35197207,48.9267961 4.98618218,48.820008 C5.40013053,48.9408662 4.8531433,48.6793975 5.18337277,48.9439327 C5.09929649,48.876649 4.92453219,48.604267 5.13432083,48.9177769 C4.92944632,48.6114824 5.21723559,49.2287613 5.11412822,48.8690728 C5.20990907,49.2034172 5.127173,49.0143732 5.127173,48.8990168 C5.127173,48.796648 5.127173,48.6942793 5.127173,48.5920008 C5.127173,47.2583212 5.127173,45.9247318 5.127173,44.5911424 C5.127173,39.2640903 5.127173,33.9371285 5.127173,28.6101666 C5.127173,23.381605 5.127173,18.1530434 5.127173,12.9244818 C5.127173,11.7138251 5.127173,10.5032585 5.127173,9.29260177 C5.127173,9.22874533 5.127173,9.1647987 5.127173,9.10094226 C5.127173,9.05981438 5.13012148,9.02581173 5.13208713,8.9779194 C5.11421757,9.42302043 5.25887166,8.82495256 5.07812106,9.21341257 C5.23313949,8.8802407 4.85421547,9.43330239 5.10054736,9.16488889 C5.34795142,8.89530288 4.83152113,9.32425941 5.14861648,9.14234071 C4.77514267,9.35663859 5.35268685,9.14306225 4.91532937,9.19681711 C4.95562523,9.19185651 4.99627848,9.19185651 5.03684238,9.19185651 C5.04148846,9.19185651 5.04613455,9.19185651 5.05086998,9.19185651 C5.25020492,9.19185651 5.44962921,9.19185651 5.6490535,9.19185651 C8.81991758,9.19185651 11.9907817,9.19185651 15.1616457,9.19185651 C20.620975,9.19185651 26.080215,9.19185651 31.5394549,9.19185651 C37.2753156,9.19185651 43.0112657,9.19185651 48.7471264,9.19185651 C52.7478528,9.19185651 56.7486686,9.19185651 60.7493951,9.19185651 C61.3346232,9.19185651 61.9197619,9.19185651 62.5049007,9.19185651 C62.6330254,9.19185651 62.7611502,9.19185651 62.8892749,9.19185651 C62.908574,9.19185651 62.9279625,9.19185651 62.9472616,9.19185651 C63.1693803,9.19185651 63.0492968,9.21233026 62.8861477,9.17868837 C63.0525133,9.23199227 63.0356266,9.21990644 62.8354875,9.14225052 C62.9809457,9.23334516 62.9693305,9.21512623 62.8005525,9.08732316 C62.8579138,9.13692915 62.9110758,9.190684 62.9603064,9.24858772 C62.8337006,9.0782137 62.815563,9.06648864 62.9058936,9.21332237 C62.8290545,9.01120051 62.8169925,8.99415409 62.8698864,9.16218311 C62.8514808,8.9371523 62.8471027,8.91631778 62.8568416,9.09976975 C62.8912406,9.95921609 63.5420499,10.6781422 64.4204282,10.6781422 C65.2466273,10.6779618 66.0183242,9.95975724 65.9839253,9.09958937 Z" id="Shape"></path>
                <path d="M32.132985,3.63191469 C32.132985,2.87735702 32.132985,2.12272116 32.132985,1.36808531 C31.6108507,1.82408768 31.0886269,2.28016824 30.5664925,2.73617061 C33.188801,2.73617061 35.811199,2.73617061 38.4335075,2.73617061 C37.9113731,2.28016824 37.3891493,1.82408768 36.867015,1.36808531 C36.867015,2.12264298 36.867015,2.87727884 36.867015,3.63191469 C36.867015,4.37771663 37.5795453,5 38.4335075,5 C39.2874697,5 40,4.37771663 40,3.63191469 C40,2.87735702 40,2.12272116 40,1.36808531 C40,0.622283373 39.2874697,0 38.4335075,0 C35.811199,0 33.188801,0 30.5664925,0 C29.7125303,0 29,0.622283373 29,1.36808531 C29,2.12264298 29,2.87727884 29,3.63191469 C29,4.37771663 29.7125303,5 30.5664925,5 C31.4204547,5 32.132985,4.37763845 32.132985,3.63191469 Z" id="Shape"></path>
                <path d="M18.4986175,39.5531671 C20.5250472,37.2426611 22.5515608,34.932243 24.5780744,32.6218249 C25.1191269,32.0048931 25.1617533,31.0581402 24.5780744,30.4468329 C24.030309,29.8731392 23.0430224,29.8293739 22.5013825,30.4468329 C20.4749528,32.7573389 18.4484392,35.067757 16.4219256,37.3781751 C15.8808731,37.9951069 15.8382467,38.9418598 16.4219256,39.5531671 C16.969691,40.1268608 17.9569776,40.1706261 18.4986175,39.5531671 Z" id="Shape"></path>
                <path d="M27.1672831,32.1593927 C29.774376,33.0819136 32.3814689,34.0044344 34.9885617,34.9269552 C35.8056371,35.2161117 36.7241438,34.6063408 36.9416133,33.8091943 C37.183125,32.9241669 36.6485693,32.1292151 35.8326734,31.8406073 C33.2255805,30.9180864 30.6184876,29.9955656 28.0113948,29.0730448 C27.1943194,28.7838883 26.2759034,29.3936592 26.0583433,30.1908057 C25.8169223,31.0758331 26.3515686,31.8706935 27.1672831,32.1593927 Z" id="Shape"></path>
                <path d="M39.7108016,32.5551477 C43.1252031,29.650086 46.5395138,26.745113 49.9539154,23.8400513 C50.8148262,23.1075477 51.6758279,22.3750442 52.5366479,21.6425406 C53.1905951,21.0861256 53.1172179,20.012456 52.5366479,19.4448523 C51.8925994,18.815178 50.9420558,18.8894141 50.2891984,19.4448523 C46.8747969,22.349914 43.4604862,25.254887 40.0460846,28.1599487 C39.1851738,28.8924523 38.3241721,29.6249558 37.4633521,30.3574594 C36.8094049,30.9138744 36.8827821,31.987544 37.4633521,32.5551477 C38.1074006,33.184822 39.0579442,33.1105859 39.7108016,32.5551477 Z" id="Shape"></path>
                <path d="M25.9929818,29.5 C25.9829317,29.6743569 25.9908344,29.6565777 26.0167758,29.4465763 C26.0005409,29.5584053 25.9652365,29.666455 25.9303616,29.7733882 C26.0440916,29.4251897 25.9379207,29.7269217 25.8874982,29.811094 C25.7007542,30.1232187 26.0977783,29.585203 25.8486719,29.8481985 C25.7261803,29.9578802 25.744219,29.9503219 25.9025304,29.8255235 C25.814656,29.8921743 25.7165596,29.9437083 25.6193222,29.9948988 C25.9450503,29.8238057 25.6532522,29.9683588 25.5583341,29.9934387 C25.1944669,30.0898074 25.8848353,29.9813282 25.5003524,29.9924939 C25.3259779,29.9824448 25.343759,29.9903467 25.5536956,30.0162855 C25.4418554,30.0000522 25.3337947,29.9647514 25.2268508,29.92988 C25.5749985,30.0435985 25.273322,29.9374383 25.1891412,29.8870208 C24.8769851,29.7002957 25.415055,30.0972798 25.1520329,29.8481985 C25.0423402,29.7258051 25.0498993,29.7437561 25.1747102,29.9021375 C25.1080528,29.8142719 25.0565135,29.7161854 25.0053179,29.6189578 C25.1764282,29.9446531 25.0318606,29.6528844 25.0067781,29.5579758 C24.9103997,29.1941453 25.0188899,29.8844441 25.007723,29.5 C25.0177732,29.3256431 25.0098705,29.3434223 24.9839291,29.5533378 C25.0001639,29.4415088 25.0354683,29.3334591 25.0703432,29.2265259 C24.9566133,29.5746385 25.0627841,29.2729924 25.1132067,29.1888201 C25.2999506,28.8766955 24.9029265,29.4147111 25.1520329,29.1517156 C25.2744387,29.0420339 25.2564858,29.0495922 25.0981744,29.1743906 C25.1860489,29.1077399 25.2841452,29.0562058 25.3813826,29.0050153 C25.0556545,29.1761084 25.3474526,29.0315553 25.4423708,29.0063895 C25.8063238,28.9100208 25.1158696,29.0185 25.5003524,29.0074202 C25.6747269,29.0174693 25.6569459,29.0095675 25.4470093,28.9836286 C25.5588495,28.9998619 25.6669101,29.0351627 25.7738541,29.0700341 C25.4256205,28.9563156 25.7273829,29.0624758 25.8115637,29.1128933 C26.1237198,29.2996184 25.5856499,28.9026343 25.8486719,29.1517156 C25.9583646,29.274109 25.9508055,29.256158 25.8259946,29.0977766 C25.8926521,29.1856422 25.9441913,29.2837287 25.995387,29.3809563 C25.8242767,29.055261 25.9688443,29.3470297 25.9939267,29.4419383 C26.0903051,29.8058547 25.9819009,29.1155559 25.9929818,29.5 C26.016604,30.3187904 26.6588691,31.003077 27.4962102,31.003077 C28.2977316,31.003077 29.0230607,30.3193058 28.9994385,29.5 C28.9433467,27.558454 27.442094,26.0574384 25.5003524,26.0013521 C23.559384,25.9452659 22.0550389,27.6425404 22.0013522,29.5 C21.9452603,31.440773 23.6427917,32.9449665 25.5003524,32.9986479 C27.4413209,33.0547341 28.9457518,31.3574596 28.9994385,29.5 C29.0230607,28.6806942 28.2977316,27.996923 27.4962102,27.996923 C26.6588691,27.996923 26.0166899,28.6812096 25.9929818,29.5 Z" id="Shape"></path>
                <path d="M15.9929081,39.500002 C15.9828577,39.674359 15.9907606,39.6565797 16.0167026,39.4466642 C16.0004674,39.5584932 15.9651621,39.666543 15.9302864,39.7734762 C16.0440191,39.4252775 15.9378456,39.7270097 15.8874218,39.811182 C15.7006733,40.1233069 16.0977072,39.5852909 15.8485946,39.8482866 C15.7261859,39.9579683 15.7441392,39.95041 15.9025404,39.8256116 C15.8146638,39.8922623 15.716565,39.9437964 15.6193252,39.9949011 C15.9450613,39.8238079 15.6532561,39.968361 15.5583356,39.9935268 C15.1943736,40.0898956 15.8848448,39.9814163 15.5003525,39.9924962 C15.3259737,39.982447 15.3437552,39.9903489 15.5536969,40.0162877 C15.441854,40.0000545 15.3337907,39.9647536 15.2268441,39.9298822 C15.5750863,40.0436008 15.2734024,39.9374406 15.1891337,39.8871089 C14.8769699,39.7003837 15.4150529,40.097368 15.1520245,39.8482866 C15.0423291,39.7258931 15.0498883,39.7438441 15.1747023,39.9022256 C15.1080432,39.81436 15.0565027,39.7162734 15.0053917,39.6190457 C15.1765062,39.9447412 15.0319351,39.6529724 15.0067661,39.5580637 C14.9103853,39.194233 15.0188781,39.8845322 15.0077969,39.5000879 C15.0178473,39.3257308 15.0099444,39.3435101 14.9840024,39.5534257 C15.0002376,39.4415967 15.0355429,39.3335468 15.0704187,39.2266136 C14.9566859,39.5747264 15.0628594,39.2730802 15.1132832,39.1889078 C15.3000317,38.876783 14.9029979,39.4147989 15.1520245,39.1518033 C15.2744332,39.0421215 15.2564799,39.0496799 15.0980787,39.1744783 C15.1859553,39.1078275 15.2840541,39.0562934 15.3812939,39.0051029 C15.0555578,39.1761961 15.3473631,39.0316429 15.4422835,39.0064771 C15.8061596,38.9101083 15.1157743,39.0185876 15.5002666,39.0075078 C15.6746454,39.0175569 15.6568639,39.009655 15.4469222,38.9837162 C15.5587651,38.9999495 15.6668284,39.0352503 15.773775,39.0701217 C15.4256188,38.9564031 15.7273026,39.0625634 15.8114855,39.1129809 C16.1236492,39.2997061 15.5855662,38.9027218 15.8485946,39.1518033 C15.95829,39.2741967 15.9507308,39.2562457 15.8259168,39.0978642 C15.8925759,39.1857299 15.9441164,39.2838164 15.9953133,39.3810441 C15.8241988,39.0554345 15.9687699,39.3471175 15.9939389,39.4420261 C16.0902338,39.8059427 15.981741,39.1155576 15.9929081,39.500002 C16.0165308,40.3187929 16.6588116,41.0030798 17.4961733,41.0030798 C18.2977143,41.0030798 19.0230613,40.3193082 18.9994385,39.500002 C18.9433453,37.5585408 17.4420558,36.0574384 15.5003525,36.0013521 C13.5593365,35.9452659 12.0550404,37.6425413 12.0013524,39.500002 C11.9452591,41.4407761 13.6426603,42.9449704 15.5003525,42.9986518 C17.4413686,43.0546522 18.9457505,41.3575485 18.9994385,39.500002 C19.0230613,38.6806957 18.2977143,37.9969242 17.4961733,37.9969242 C16.6588116,37.9969242 16.0165308,38.6812111 15.9929081,39.500002 Z" id="Shape"></path>
                <path d="M36.992945,33.4999571 C36.9828947,33.6743119 36.9907975,33.6565328 37.0166533,33.44662 C37.0004183,33.5584475 36.9651134,33.666496 36.9302381,33.7734279 C37.0439695,33.4252336 36.9377973,33.7269619 36.8873741,33.8111332 C36.7006279,34.123254 37.0976568,33.5852449 36.8486333,33.8482372 C36.7261401,33.9579176 36.7440932,33.9503593 36.9024925,33.8255625 C36.8147028,33.8922124 36.7166053,33.9437459 36.6192808,33.9949357 C36.9450129,33.8238447 36.6532112,33.968396 36.5582919,33.9934756 C36.1944203,34.0898432 36.8847971,33.9813653 36.5003095,33.9925308 C36.3259329,33.9824818 36.3438001,33.9903836 36.5536533,34.0163221 C36.4418117,34.0000891 36.3337498,33.9647887 36.2268045,33.9299177 C36.5750424,34.0436348 36.2732763,33.9373901 36.1890945,33.8870591 C35.8769346,33.7003363 36.4150969,34.0973155 36.1519858,33.8482372 C36.0423776,33.7258453 36.0499368,33.7437961 36.1747492,33.9020897 C36.108091,33.8142252 36.0564652,33.7161399 36.0053548,33.6189134 C36.1764672,33.9446048 36.0318978,33.6528396 36.0067292,33.5579322 C35.9103496,33.1941061 36.018841,33.8843965 36.00776,33.4999571 C36.0178103,33.3256023 36.0099075,33.3433813 35.9840516,33.5532942 C36.0002867,33.4414666 36.0355915,33.3334182 36.0704668,33.2264863 C35.9567355,33.5746806 36.0629077,33.2729523 36.1133308,33.188781 C36.300077,32.8766602 35.9030481,33.4146693 36.1520717,33.151677 C36.2745648,33.0419966 36.2566117,33.0495549 36.0982125,33.1743517 C36.1860021,33.1077018 36.2840997,33.0561683 36.3814242,33.0049784 C36.0556921,33.1760694 36.3474937,33.0315182 36.442413,33.0064386 C36.8062847,32.910071 36.1159078,33.0185489 36.5003954,33.0073833 C36.674772,33.0174324 36.6569049,33.0095306 36.4470516,32.9835921 C36.5588932,32.9998251 36.6669552,33.0351255 36.7739004,33.0699965 C36.4256626,32.9562793 36.7274286,33.0624382 36.8116105,33.1128551 C37.1237704,33.2995779 36.585608,32.9025987 36.8487192,33.151677 C36.9583273,33.2740689 36.9507682,33.256118 36.8259557,33.0977386 C36.892614,33.1856031 36.9442398,33.2836884 36.9953502,33.3809149 C36.8242377,33.0552235 36.9688071,33.3469887 36.9939758,33.4418102 C37.0903554,33.805808 36.9818639,33.1155177 36.992945,33.4999571 C37.0165674,34.3187375 37.6588403,35.0030156 38.4961918,35.0030156 C39.2977229,35.0030156 40.023061,34.3192528 39.9994385,33.4999571 C39.943346,31.5585208 38.4420749,30.0574377 36.5003954,30.0013521 C34.5594032,29.9452666 33.0550397,31.6425203 33.0013523,33.4999571 C32.9452597,35.4407063 34.642726,36.9449673 36.5003954,36.9986479 C38.4413877,37.0547335 39.9457512,35.3573939 39.9994385,33.4999571 C40.023061,32.6806613 39.2977229,31.9968985 38.4961918,31.9968985 C37.6588403,31.9968985 37.0165674,32.6811767 36.992945,33.4999571 Z" id="Shape"></path>
                <path d="M53.992945,19.5000428 C53.9828947,19.6743976 53.9907975,19.6566186 54.0166533,19.4467057 C54.0005042,19.5585333 53.9651993,19.6665817 53.9302381,19.7735136 C54.0439695,19.4254053 53.9377973,19.7270476 53.8873741,19.8112189 C53.7006279,20.1233398 54.0976568,19.5853307 53.8486333,19.848323 C53.7261401,19.9580033 53.7441791,19.9504451 53.9025784,19.8256483 C53.8147028,19.8922982 53.7166053,19.9438316 53.6192808,19.9950215 C53.9450129,19.8239305 53.6532112,19.9684818 53.5582919,19.9936473 C53.1943344,20.0900148 53.8847971,19.9815369 53.5002236,19.9926166 C53.325847,19.9825676 53.3437142,19.9904694 53.5536533,20.0164079 C53.4417258,20.0001748 53.3337498,19.9648744 53.2268045,19.9300035 C53.5750424,20.0437206 53.2732763,19.9375617 53.1890945,19.8871448 C52.8769346,19.700422 53.4150969,20.0974013 53.1519858,19.848323 C53.0422917,19.7259311 53.0499368,19.7438819 53.1747492,19.9022613 C53.108091,19.8143968 53.0564652,19.7163115 53.0053548,19.6190851 C53.1764672,19.9446905 53.0318978,19.6530113 53.0067292,19.5581038 C52.9103496,19.1941919 53.0188411,19.8845682 53.00776,19.5001287 C53.0178103,19.3257739 53.0099075,19.343553 52.9840516,19.5534658 C53.0002867,19.4416383 53.0355915,19.3335898 53.0704668,19.226658 C52.9567355,19.5747663 53.0629077,19.273124 53.1133308,19.1889527 C53.300077,18.8768318 52.9030481,19.4148409 53.1520717,19.1518486 C53.2745648,19.0421683 53.2565258,19.0497265 53.0981266,19.1745233 C53.1860021,19.1078734 53.2840997,19.05634 53.3814242,19.005236 C53.0556921,19.176327 53.3474078,19.0317757 53.4423271,19.0066102 C53.8061988,18.9102427 53.1158219,19.0187206 53.5003095,19.007555 C53.6746861,19.017604 53.6569049,19.0097022 53.4469657,18.9837637 C53.5588932,18.9999967 53.6668693,19.0352971 53.7739004,19.0701681 C53.4256626,18.956451 53.7274286,19.0626958 53.8116105,19.1130267 C54.1237704,19.2997496 53.585608,18.9027703 53.8487192,19.1518486 C53.9584132,19.2742405 53.9508541,19.2562897 53.8260416,19.0979103 C53.892614,19.1857748 53.9442398,19.2838601 53.9953502,19.3810865 C53.8243236,19.0553952 53.9688071,19.3471603 53.9939758,19.4420677 C54.0903554,19.8059797 53.9818639,19.1156034 53.992945,19.5000428 C54.0165674,20.3188233 54.6588403,21.0031014 55.4961918,21.0031014 C56.2977229,21.0031014 57.023061,20.3193386 56.9994385,19.5000428 C56.943346,17.5585207 55.441989,16.0574376 53.5003095,16.001352 C51.5593173,15.9452664 50.0550397,17.6426919 50.0013523,19.5000428 C49.9452597,21.4407061 51.642726,22.9449671 53.5003095,22.9986478 C55.4413018,23.0547334 56.9457512,21.3575655 56.9994385,19.5000428 C57.023061,18.6807471 56.2977229,17.9969843 55.4961918,17.9969843 C54.6588403,17.9969843 54.0166533,18.6812624 53.992945,19.5000428 Z" id="Shape"></path>
                <path d="M20.5670699,69 C24.2884021,69 28.0097343,69 31.731156,69 C36.6473802,69 41.5636043,69 46.4798284,69 C46.7975588,69 47.1151997,69 47.4328405,69 C48.2871663,69 49,68.3177143 49,67.5 C49,66.6822857 48.2871663,66 47.4328405,66 C43.7115083,66 39.9901761,66 36.268844,66 C31.3526198,66 26.4363957,66 21.520082,66 C21.2024412,66 20.8848003,66 20.5671595,66 C19.7128337,66 19,66.6822857 19,67.5 C19,68.3177143 19.7128337,69 20.5670699,69 Z" id="Shape"></path>
                <path d="M1.57875331,57 C3.50780944,57 5.43686556,57 7.36592168,57 C12.0833268,57 16.8006417,57 21.5180468,57 C27.4189756,57 33.3198142,57 39.2207431,57 C44.7003703,57 50.1799073,57 55.6596247,57 C59.1132152,57 62.5668058,57 66.0204865,57 C66.4874367,57 66.9543868,57 67.4212467,57 C68.2818928,57 69,56.3177143 69,55.5 C69,54.6822857 68.2818928,54 67.4212467,54 C65.4921906,54 63.5630442,54 61.6340783,54 C56.9166732,54 52.1993583,54 47.4819532,54 C41.5811146,54 35.680276,54 29.7792569,54 C24.2996297,54 18.8200025,54 13.3403753,54 C9.88678476,54 6.43319422,54 2.97951347,54 C2.51256335,54 2.04561322,54 1.57875331,54 C0.718107222,54 0,54.6822857 0,55.5 C0,56.3177143 0.718107222,57 1.57875331,57 Z" id="Shape"></path>
            </g>
        </g>
    </g>
</svg>