<svg xmlns="http://www.w3.org/2000/svg" viewBox="0 0 125 127">
    <g>
        <path fill-rule="nonzero" d="M103.828 30.135L72.616 55.708a.294.294 0 0 1-.382-.447l30.157-26.903a1.113 1.113 0 0 1 1.605.13 1.174 1.174 0 0 1-.168 1.647zM97.738 93.904L69.125 71.549a.294.294 0 0 1 .35-.473l29.788 20.826a1.226 1.226 0 0 1 .264 1.76l-.02.025a1.26 1.26 0 0 1-1.769.217zM26.417 32.562L53.4 56.86a.294.294 0 0 1-.382.447L24.756 34.453a1.226 1.226 0 0 1-.14-1.773l.021-.024a1.26 1.26 0 0 1 1.78-.094zM24.72 94.078l28.614-22.355a.294.294 0 0 1 .374.453L26.294 96.042a1.226 1.226 0 0 1-1.77-.17l-.02-.025a1.26 1.26 0 0 1 .216-1.769z"/>
        <path d="M56.483 53.53L36.186 25.736a1.008 1.008 0 0 1 .002-1.191l5.28-7.187a1.008 1.008 0 0 1 1.74.2l15.016 34.98a1.008 1.008 0 0 1-1.74.992zM67.75 49.75l10.556-32.758c.135-.419.525-.702.965-.7l8.918.05a1.008 1.008 0 0 1 .86 1.523l-19.473 32.71a1.008 1.008 0 0 1-1.826-.825zM62.867 51.627l3.752-43.825a1.008 1.008 0 0 0-.417-.905L57.888.924a1.008 1.008 0 0 0-1.591.91l4.562 49.8a1.008 1.008 0 0 0 2.008-.007zM50.443 82.722l-20.297 27.794c-.26.355-.259.837.002 1.191l5.28 7.187a1.008 1.008 0 0 0 1.74-.2l15.016-34.98a1.008 1.008 0 0 0-1.74-.992zM66.698 77.038l11.692 32.37c.15.413.55.682.989.664l8.911-.36a1.008 1.008 0 0 0 .807-1.552L68.494 76.15a1.008 1.008 0 0 0-1.796.888zM61.607 75.185l3.752 43.825c.03.354-.128.697-.417.905l-8.314 5.973a1.008 1.008 0 0 1-1.591-.91l4.562-49.8a1.008 1.008 0 0 1 2.008.007zM76.028 60.773l33.49-7.614c.429-.098.745-.463.78-.902l.718-8.88a1.008 1.008 0 0 0-1.443-.989L75.367 58.882a1.008 1.008 0 0 0 .66 1.89zM74.984 66.645l43.779 4.557c.356.037.665.26.813.586l4.25 9.359a1.008 1.008 0 0 1-1.2 1.385L74.6 68.616a1.008 1.008 0 0 1 .385-1.97zM47.622 60.773l-33.49-7.614a1.008 1.008 0 0 1-.78-.902l-.718-8.88a1.008 1.008 0 0 1 1.443-.989l34.206 16.494a1.008 1.008 0 0 1-.66 1.89zM49.666 66.645L5.887 71.202c-.356.037-.665.26-.813.586l-4.25 9.359a1.008 1.008 0 0 0 1.2 1.385L50.05 68.616a1.008 1.008 0 0 0-.385-1.97z"/>
        <g fill-rule="nonzero">
            <path d="M103.9 39.84a.437.437 0 0 0 .112-.403l-2.133-7.309 3.726-3.475a1.311 1.311 0 0 0-1.788-1.917l-3.727 3.475-7.142-2.638a.437.437 0 0 0-.41.083l-.8.745c-.098.092-.084.223.033.292l6.112 3.577 1.788 1.917 3.142 6.346c.06.122.19.146.289.053l.799-.745zM87.854 95.466c.11.08.297.094.417.032l6.768-3.488 4.122 2.995a1.311 1.311 0 0 0 1.541-2.122l-4.122-2.995 1.226-7.514a.437.437 0 0 0-.16-.387l-.883-.642c-.11-.08-.235-.041-.28.087l-2.345 6.682-1.542 2.121-5.63 4.295c-.108.083-.106.214.004.294l.884.642zM21.483 87.457a.437.437 0 0 0-.132.397l1.748 7.41-3.904 3.276a1.311 1.311 0 0 0 1.686 2.009l3.903-3.276 6.995 3.008c.124.054.31.026.414-.06l.837-.703c.104-.087.096-.219-.017-.293l-5.916-3.892-1.686-2.009-2.805-6.502c-.054-.124-.182-.155-.286-.067l-.837.702zM33.312 29.215a.437.437 0 0 0-.412-.075l-7.095 2.762-3.787-3.41a1.311 1.311 0 0 0-1.754 1.949l3.787 3.41-2.005 7.344a.437.437 0 0 0 .118.402l.812.73c.1.092.23.066.288-.057l3.03-6.4 1.755-1.948 6.048-3.683c.116-.071.128-.202.027-.293l-.812-.73z"/>
        </g>
    </g>
</svg>
